<?xml version="1.0" ?><svg id="Layer_1" style="enable-background:new 0 0 96 96;" version="1.1" viewBox="0 0 96 96" xml:space="preserve" xmlns="http://www.w3.org/2000/svg" xmlns:xlink="http://www.w3.org/1999/xlink"><style type="text/css">
	.st0{fill:none;stroke:#000000;stroke-width:4;stroke-miterlimit:10;}
</style><g><path d="M87,9v67.4L48.8,86.6c-0.1,0-0.4,0.1-0.8,0.1s-0.8,0-0.8-0.1L9,76.4V9h36.6h4.9H87 M90.6,3H50.4c-1.3,0-3.6,0-4.9,0H5.4   C4.1,3,3,4.1,3,5.4v73.1c0,1.3,1.1,2.7,2.4,3.1l40.3,10.7c0.7,0.2,1.5,0.3,2.4,0.3s1.7-0.1,2.4-0.3l40.3-10.7   c1.3-0.3,2.4-1.7,2.4-3.1V5.4C93,4.1,91.9,3,90.6,3L90.6,3z"/></g><line class="st0" x1="3" x2="93" y1="18" y2="18"/><g><path class="st0" d="M4,70l41.4,11.3c1.4,0.4,3.7,0.4,5.1,0L92,70"/></g><g><path d="M22,48.1C22,40.5,27,36,32.7,36c2.9,0,5.3,1.4,6.8,3l-2.7,3.3c-1.1-1.1-2.4-1.8-4-1.8c-3.1,0-5.5,2.8-5.5,7.5   c0,4.8,2.2,7.5,5.5,7.5c1.8,0,3.3-1,4.4-2.2l2.7,3.3C38,58.8,35.5,60,32.5,60C26.8,60,22,55.9,22,48.1z"/><path d="M46.9,49.7h-6.1V46h6.1v-6.5h3.7V46h6.1v3.7h-6.1v6.5h-3.7V49.7z"/><path d="M64.1,49.7H58V46h6.1v-6.5h3.7V46H74v3.7h-6.1v6.5h-3.7V49.7z"/></g></svg>